# 3ds Max Wavefront OBJ Exporter v0.97b - (c)2007 guruware
# File Created: 15.09.2015 18:19:21

mtllib 3d-model.mtl

#
# object Composant_1_002
#

v  80.1221 0.0000 2750.0000
v  80.1218 0.0000 -2750.0000
v  80.1218 6999.9995 -2750.0000
v  80.1221 6999.9995 2750.0000
# 4 vertices

vn 1.0000 0.0000 -0.0000
# 1 vertex normals

vt 0.0000 0.0000 0.0000
vt 0.9910 0.0000 0.0000
vt 0.9910 1.0000 0.0000
vt 0.0000 1.0000 0.0000
# 4 texture coords

g Composant_1_002
usemtl wire_224086086
s off
f 1/1/1 2/2/1 3/3/1 4/4/1 
# 1 polygons

#
# object Composant_1_001
#

v  -2750.0000 0.0000 -80.1221
v  2750.0000 0.0000 -80.1221
v  2750.0000 6999.9995 -80.1221
v  -2750.0000 6999.9995 -80.1221
# 4 vertices

vn 0.0000 0.0000 1.0000
# 1 vertex normals

vt 0.0000 0.0000 0.0000
vt 0.9910 0.0000 0.0000
vt 0.9910 1.0000 0.0000
vt 0.0000 1.0000 0.0000
# 4 texture coords

g Composant_1_001
usemtl wire_134006006
s off
f 5/5/2 6/6/2 7/7/2 8/8/2 
# 1 polygons

