# Blender v2.79 (sub 0) OBJ File: 'CocosNucifera_025_100_3698.blend'
# www.blender.org
o CocosNucifera-025/100-3698_LOD3_Cocos_Nucifera.003
v 0.000000 -0.000000 -0.200819
v 0.131877 4.660098 -0.065050
v 0.200819 0.000001 -0.000000
v 0.207937 4.662243 0.011060
v -0.200819 -0.000001 0.000000
v 0.055808 4.657591 0.011039
v -0.000000 0.000000 0.200819
v 0.131867 4.659737 0.087149
v 0.000000 0.000000 0.000000
v 0.131877 4.660098 -0.065050
v 0.097351 5.769699 0.008077
v 0.207937 4.662243 0.011060
v 0.098662 5.769747 0.009389
v 0.055808 4.657591 0.011039
v 0.096039 5.769664 0.009389
v 0.131867 4.659737 0.087149
v 0.097350 5.769712 0.010701
v 0.131872 4.659917 0.011050
v 0.021753 5.223772 -0.014844
v -2.512993 6.437264 -0.794608
v 0.088205 5.227428 0.103986
v -2.512993 6.437264 -0.794608
v 0.140525 5.227682 -0.081384
v -2.512993 6.437264 -0.794608
v 0.206977 5.231338 0.037446
v -2.512993 6.437264 -0.794608
v 0.114365 5.227555 0.011301
v -1.057331 5.744081 0.390772
v -2.746541 5.775758 0.232688
v 0.006047 6.042728 -0.020236
v -2.512993 6.437264 -0.794608
v -2.271402 5.757274 -1.159479
v 0.006047 6.042728 -0.020236
v -0.648649 5.736155 -1.060409
v 0.187793 5.229133 -0.009394
v -0.166153 9.692640 -0.271766
v 0.135038 5.228747 0.084742
v -0.166153 9.692640 -0.271766
v 0.093693 5.226363 -0.062141
v -0.166153 9.692640 -0.271766
v 0.040937 5.225977 0.031995
v -0.166153 9.692640 -0.271766
v 0.114365 5.227555 0.011301
v 1.375886 6.127681 0.243802
v 1.112182 9.829796 -0.049562
v 0.088589 6.083389 -0.000540
v -0.166153 9.692640 -0.271766
v 0.813710 9.612800 -1.129566
v 0.088589 6.083389 -0.000540
v 1.058836 6.094369 -0.882189
v 0.187832 5.478544 -0.026588
v 0.066120 10.035503 -0.285330
v 0.143794 5.478837 0.091935
v 0.066120 10.035503 -0.285330
v 0.069353 5.474965 -0.070601
v 0.066120 10.035503 -0.285330
v 0.025315 5.475257 0.047922
v 0.066120 10.035503 -0.285330
v 0.106573 5.476901 0.010667
v 1.341842 6.119825 0.012042
v 1.302005 9.952545 -0.290857
v 0.091160 6.095742 0.000236
v 0.066120 10.035503 -0.285330
v 0.882226 9.842282 -1.196900
v 0.091160 6.095742 0.000236
v 0.898726 6.088974 -0.955166
v 0.025027 4.990561 0.023472
v -1.653188 9.782672 -0.020046
v 0.133551 4.995086 0.108150
v -1.653188 9.782672 -0.020046
v 0.109638 4.993930 -0.085146
v -1.653188 9.782672 -0.020046
v 0.218162 4.998456 -0.000468
v -1.653188 9.782672 -0.020046
v 0.121594 4.994508 0.011502
v -1.175463 5.739179 0.844060
v -2.480178 8.864067 0.805237
v -0.134374 5.861309 0.010829
v -1.653188 9.782672 -0.020046
v -2.568175 8.709133 -0.488182
v -0.134374 5.861309 0.010829
v -1.340606 5.719737 -0.492943
v 0.214451 4.996496 0.023031
v 3.433513 3.605973 0.400583
v 0.110066 4.994350 0.104379
v 3.433513 3.605973 0.400583
v 0.133123 4.994667 -0.081375
v 3.433513 3.605973 0.400583
v 0.028738 4.992521 -0.000027
v 3.433513 3.605973 0.400583
v 0.121594 4.994508 0.011502
v 1.201681 4.088900 0.820248
v 3.090578 3.102801 0.926362
v 0.242057 4.979378 0.025428
v 3.433513 3.605973 0.400583
v 3.220205 3.092303 -0.331284
v 0.242057 4.979378 0.025428
v 1.365701 4.081640 -0.506339
v 0.042710 5.474183 -0.018654
v -2.522965 9.127234 -1.222304
v 0.077242 5.476582 0.074583
v -2.522965 9.127234 -1.222304
v 0.135905 5.477220 -0.053248
v -2.522965 9.127234 -1.222304
v 0.170436 5.479619 0.039989
v -2.522965 9.127234 -1.222304
v 0.106573 5.476901 0.010667
v -1.465270 6.053608 0.044321
v -2.716641 7.788015 -0.542391
v 0.044424 5.663595 -0.014098
v -2.522965 9.127234 -1.222304
v -2.120096 7.756315 -1.723876
v 0.044424 5.663595 -0.014098
v -0.898141 6.056124 -1.195297
v 0.205922 4.996296 0.021972
v -0.261312 8.855315 -0.170176
v 0.111125 4.994365 0.095849
v -0.261312 8.855315 -0.170176
v 0.126844 4.994581 -0.030792
v -0.261312 8.855315 -0.170176
v 0.037267 4.992721 0.001032
v -0.261312 8.855315 -0.170176
v 0.121594 4.994508 0.011502
v 0.890127 5.501452 0.755048
v 0.443843 9.271285 0.498551
v 0.112909 5.490304 0.010972
v -0.261312 8.855315 -0.170176
v 0.624443 9.092863 -0.695989
v 0.112909 5.490304 0.010972
v 1.046259 5.499637 -0.504914
v 0.029892 5.473637 -0.024540
v -2.478262 8.533161 -1.199996
v 0.071354 5.476518 0.087412
v -2.478262 8.533161 -1.199996
v 0.124234 5.477093 -0.027815
v -2.478262 8.533161 -1.199996
v 0.183255 5.480165 0.045874
v -2.478262 8.533161 -1.199996
v 0.106573 5.476901 0.010667
v -1.128814 5.897605 0.186956
v -2.459677 7.589682 -0.463862
v 0.070849 6.006686 -0.003110
v -2.478262 8.533161 -1.199996
v -1.887953 7.566680 -1.587089
v 0.070849 6.006686 -0.003110
v -0.577899 5.901527 -1.016775
v 0.034037 5.224284 -0.011376
v -3.545070 5.989685 -1.061318
v 0.091675 5.227445 0.091692
v -3.545070 5.989685 -1.061318
v 0.125743 5.227610 -0.029010
v -3.545070 5.989685 -1.061318
v 0.194694 5.230825 0.033978
v -3.545070 5.989685 -1.061318
v 0.114365 5.227555 0.011301
v -0.984951 5.873083 0.404410
v -3.186128 5.440054 -0.660673
v -0.093227 5.791990 -0.049106
v -3.545070 5.989685 -1.061318
v -2.793731 5.425426 -1.922311
v -0.093227 5.791990 -0.049106
v -0.619726 5.864486 -0.890131
v 0.180940 5.478407 -0.023428
v -0.485732 10.875649 -1.503162
v 0.140637 5.478674 0.085042
v -0.485732 10.875649 -1.503162
v 0.089493 5.476012 -0.026627
v -0.485732 10.875649 -1.503162
v 0.032207 5.475394 0.044762
v -0.485732 10.875649 -1.503162
v 0.106573 5.476901 0.010667
v 1.290397 6.591322 0.162981
v 0.620688 11.355842 -1.577422
v 0.087794 6.572843 -0.021436
v -0.485732 10.875649 -1.503162
v 0.247004 10.321382 -2.288114
v 0.087794 6.572843 -0.021436
v 0.734089 6.520741 -1.046109
v 0.208748 5.229611 -0.015300
v 3.704479 4.870203 -1.123065
v 0.140938 5.229087 0.105702
v 3.704479 4.870203 -1.123065
v 0.101041 5.226786 -0.036035
v 3.704479 4.870203 -1.123065
v 0.019982 5.225499 0.037902
v 3.704479 4.870203 -1.123065
v 0.114365 5.227555 0.011301
v 1.453859 4.498462 0.275118
v 3.725911 4.333153 -0.489951
v 0.210245 5.254237 -0.031163
v 3.704479 4.870203 -1.123065
v 3.530426 4.304209 -1.054847
v 0.210245 5.254237 -0.031163
v 1.118206 4.465292 -0.908087
v 0.028811 4.990734 0.023003
v -3.522531 5.381636 0.362588
v 0.133082 4.995064 0.104362
v -3.522531 5.381636 0.362588
v 0.115834 4.994230 -0.035061
v -3.522531 5.381636 0.362588
v 0.214378 4.998282 0.000001
v -3.522531 5.381636 0.362588
v 0.121594 4.994508 0.011502
v -0.781653 4.604507 0.688153
v -2.742108 4.883248 0.210938
v 0.001448 5.027423 0.019579
v -3.522531 5.381636 0.362588
v -2.818140 4.859204 -0.851800
v 0.001448 5.032497 0.019579
v -0.917358 4.589242 -0.416468
vt 0.711000 0.000000
vt 0.711000 0.250000
vt 0.692000 0.250000
vt 0.692000 0.000000
vt 0.730000 0.000000
vt 0.730000 0.250000
vt 0.749000 0.000000
vt 0.749000 0.250000
vt 0.768000 0.000000
vt 0.768000 0.250000
vt 0.692000 -0.010766
vt 0.730000 -0.010766
vt 0.552500 0.750000
vt 0.552500 0.870000
vt 0.515000 0.870000
vt 0.515000 0.750000
vt 0.590000 0.750000
vt 0.590000 0.870000
vt 0.627500 0.750000
vt 0.627500 0.870000
vt 0.665000 0.750000
vt 0.665000 0.870000
vt 0.515000 0.741775
vt 0.590000 0.741775
vt 0.525000 0.045000
vt 0.520000 0.045000
vt 0.520000 0.895000
vt 0.525000 0.895000
vt 0.530000 0.045000
vt 0.530000 0.895000
vt 0.535000 0.045000
vt 0.535000 0.895000
vt 0.540000 0.045000
vt 0.540000 0.895000
vt 0.520000 0.026275
vt 0.530000 0.026275
vt 0.456000 0.033000
vt 0.363765 0.033000
vt 0.366000 0.398000
vt 0.456000 0.398000
vt 0.368235 0.033000
vt 0.276000 0.033000
vt 0.276000 0.398000
vt 0.525000 0.045000
vt 0.525000 0.895000
vt 0.520000 0.895000
vt 0.520000 0.045000
vt 0.530000 0.045000
vt 0.530000 0.895000
vt 0.535000 0.045000
vt 0.535000 0.895000
vt 0.540000 0.045000
vt 0.540000 0.895000
vt 0.520000 0.030550
vt 0.530000 0.030550
vt 0.456000 0.033000
vt 0.456000 0.398000
vt 0.366000 0.398000
vt 0.363718 0.033000
vt 0.276000 0.398000
vt 0.276000 0.033000
vt 0.368282 0.033000
vt 0.525000 0.045000
vt 0.525000 0.895000
vt 0.520000 0.895000
vt 0.520000 0.045000
vt 0.530000 0.045000
vt 0.530000 0.895000
vt 0.535000 0.045000
vt 0.535000 0.895000
vt 0.540000 0.045000
vt 0.540000 0.895000
vt 0.520000 0.028392
vt 0.530000 0.028392
vt 0.456000 0.033000
vt 0.456000 0.398000
vt 0.366000 0.398000
vt 0.360652 0.033000
vt 0.276000 0.398000
vt 0.276000 0.033000
vt 0.371348 0.033000
vt 0.525000 0.045000
vt 0.520000 0.045000
vt 0.520000 0.895000
vt 0.525000 0.895000
vt 0.530000 0.045000
vt 0.530000 0.895000
vt 0.535000 0.045000
vt 0.535000 0.895000
vt 0.540000 0.045000
vt 0.540000 0.895000
vt 0.520000 0.029199
vt 0.530000 0.029199
vt 0.456000 0.033000
vt 0.363127 0.033000
vt 0.366000 0.398000
vt 0.456000 0.398000
vt 0.368872 0.033000
vt 0.276000 0.033000
vt 0.276000 0.398000
vt 0.525000 0.045000
vt 0.525000 0.895000
vt 0.520000 0.895000
vt 0.520000 0.045000
vt 0.530000 0.045000
vt 0.530000 0.895000
vt 0.535000 0.045000
vt 0.535000 0.895000
vt 0.540000 0.045000
vt 0.540000 0.895000
vt 0.520000 0.030504
vt 0.530000 0.030504
vt 0.456000 0.033000
vt 0.456000 0.398000
vt 0.366000 0.398000
vt 0.360849 0.033000
vt 0.276000 0.398000
vt 0.276000 0.033000
vt 0.371151 0.033000
vt 0.525000 0.045000
vt 0.520000 0.045000
vt 0.520000 0.895000
vt 0.525000 0.895000
vt 0.530000 0.045000
vt 0.530000 0.895000
vt 0.535000 0.045000
vt 0.535000 0.895000
vt 0.540000 0.045000
vt 0.540000 0.895000
vt 0.520000 0.033637
vt 0.530000 0.033637
vt 0.456000 0.033000
vt 0.363329 0.033000
vt 0.366000 0.398000
vt 0.456000 0.398000
vt 0.368671 0.033000
vt 0.276000 0.033000
vt 0.276000 0.398000
vt 0.525000 0.045000
vt 0.525000 0.895000
vt 0.520000 0.895000
vt 0.520000 0.045000
vt 0.530000 0.045000
vt 0.530000 0.895000
vt 0.535000 0.045000
vt 0.535000 0.895000
vt 0.540000 0.045000
vt 0.540000 0.895000
vt 0.520000 0.026505
vt 0.530000 0.026505
vt 0.456000 0.443000
vt 0.456000 0.808000
vt 0.366000 0.808000
vt 0.361249 0.443000
vt 0.276000 0.808000
vt 0.276000 0.443000
vt 0.368382 0.443000
vt 0.525000 0.045000
vt 0.520000 0.045000
vt 0.520000 0.895000
vt 0.525000 0.895000
vt 0.530000 0.045000
vt 0.530000 0.895000
vt 0.535000 0.045000
vt 0.535000 0.895000
vt 0.540000 0.045000
vt 0.540000 0.895000
vt 0.520000 0.030511
vt 0.530000 0.030511
vt 0.456000 0.443000
vt 0.359983 0.443000
vt 0.366000 0.808000
vt 0.456000 0.808000
vt 0.369017 0.443000
vt 0.276000 0.443000
vt 0.276000 0.808000
vt 0.525000 0.045000
vt 0.520000 0.045000
vt 0.520000 0.895000
vt 0.525000 0.895000
vt 0.530000 0.045000
vt 0.530000 0.895000
vt 0.535000 0.045000
vt 0.535000 0.895000
vt 0.540000 0.045000
vt 0.540000 0.895000
vt 0.520000 0.031764
vt 0.530000 0.031764
vt 0.456000 0.443000
vt 0.363842 0.443000
vt 0.366000 0.808000
vt 0.456000 0.808000
vt 0.367082 0.443000
vt 0.276000 0.443000
vt 0.276000 0.808000
vt 0.525000 0.045000
vt 0.525000 0.895000
vt 0.520000 0.895000
vt 0.520000 0.045000
vt 0.530000 0.045000
vt 0.530000 0.895000
vt 0.535000 0.045000
vt 0.535000 0.895000
vt 0.540000 0.045000
vt 0.540000 0.895000
vt 0.520000 0.033065
vt 0.530000 0.033065
vt 0.456000 0.443000
vt 0.456000 0.808000
vt 0.366000 0.808000
vt 0.363867 0.443000
vt 0.276000 0.808000
vt 0.276000 0.443000
vt 0.367069 0.443000
vt 0.525000 0.045000
vt 0.525000 0.895000
vt 0.520000 0.895000
vt 0.520000 0.045000
vt 0.530000 0.045000
vt 0.530000 0.895000
vt 0.535000 0.045000
vt 0.535000 0.895000
vt 0.540000 0.045000
vt 0.540000 0.895000
vt 0.520000 0.030116
vt 0.530000 0.030116
vt 0.456000 0.443000
vt 0.456000 0.808000
vt 0.366000 0.808000
vt 0.360545 0.443000
vt 0.276000 0.808000
vt 0.276000 0.443000
vt 0.368735 0.443000
vt 0.525000 0.045000
vt 0.520000 0.045000
vt 0.520000 0.895000
vt 0.525000 0.895000
vt 0.530000 0.045000
vt 0.530000 0.895000
vt 0.535000 0.045000
vt 0.535000 0.895000
vt 0.540000 0.045000
vt 0.540000 0.895000
vt 0.520000 0.030066
vt 0.530000 0.030066
vt 0.456000 0.443000
vt 0.360678 0.443000
vt 0.366000 0.808000
vt 0.456000 0.808000
vt 0.368668 0.443000
vt 0.276000 0.443000
vt 0.276000 0.808000
vn -0.0000 -0.3486 -0.9373
vn -0.0003 0.0148 -0.9999
vn 0.9991 0.0430 0.0002
vn 0.9372 -0.3487 -0.0000
vn -0.9373 -0.3486 0.0000
vn -0.9998 -0.0181 -0.0001
vn 0.0000 -0.3487 0.9372
vn -0.0004 0.0101 0.9999
vn 0.0000 -1.0000 0.0000
vn 0.0076 -0.2436 -0.9698
vn -0.0082 0.2641 -0.9645
vn 0.9540 0.2997 -0.0013
vn 0.9763 -0.2163 -0.0005
vn -0.9613 -0.2755 -0.0007
vn -0.9711 0.2388 -0.0016
vn 0.0075 -0.2482 0.9687
vn -0.0088 0.2744 0.9616
vn 0.0306 -0.9995 -0.0024
vn -0.9619 -0.0307 -0.2715
vn -0.2719 0.0072 0.9623
vn -0.3111 0.0362 0.9493
vn -0.0649 -0.1467 -0.0173
vn 0.2713 0.0099 -0.9625
vn 0.2628 0.0090 -0.9625
vn 0.9613 0.0479 0.2714
vn 0.0713 0.1741 0.0191
vn 0.0382 -0.9992 0.0094
vn 0.4366 -0.0975 0.8944
vn 0.3183 0.1420 0.9373
vn -0.5344 0.7086 -0.4608
vn -0.9058 0.2279 0.3572
vn -0.8073 0.5874 0.0570
vn 0.7031 0.1895 -0.6854
vn 0.7673 -0.2566 -0.5878
vn -0.5085 0.2628 -0.8199
vn 0.9621 0.0271 -0.2713
vn 0.9596 0.0601 -0.2724
vn 0.2661 0.0942 0.9545
vn 0.2708 0.0221 0.9624
vn -0.2711 -0.0092 -0.9625
vn -0.2668 -0.0603 -0.9530
vn -0.9624 -0.0142 0.2711
vn -0.9621 -0.0261 0.2714
vn 0.0241 -0.9997 0.0094
vn -0.1734 -0.2348 0.9565
vn -0.1967 0.3490 0.9163
vn -0.9623 -0.0245 0.2709
vn -0.1869 0.0150 0.9823
vn -0.9623 -0.0244 0.2708
vn -0.6580 0.0136 -0.7529
vn -0.6430 -0.2842 -0.7112
vn -0.6718 -0.0360 -0.7399
vn 0.9087 0.0257 -0.4168
vn 0.9024 0.0007 -0.4129
vn 0.4148 0.0821 0.9057
vn 0.4161 0.0289 0.9089
vn -0.4165 -0.0144 -0.9090
vn -0.4151 -0.0430 -0.9063
vn -0.9090 -0.0111 0.4166
vn -0.9061 0.0383 0.4128
vn 0.0257 -0.9996 0.0120
vn -0.0073 -0.1040 0.9945
vn 0.0249 0.3071 0.9513
vn -0.9062 0.1219 0.4050
vn -0.0098 0.0230 0.9997
vn -0.9061 0.1221 0.4050
vn -0.7290 0.1091 -0.6758
vn -0.7548 -0.1561 -0.6370
vn -0.7634 -0.0295 -0.6452
vn -0.9918 -0.0345 0.1229
vn 0.1225 0.0120 0.9924
vn 0.1098 0.0675 0.9894
vn -0.8166 -0.2850 0.1082
vn -0.1230 0.0001 -0.9924
vn -0.1173 -0.0298 -0.9874
vn 0.9913 0.0466 -0.1229
vn 0.8216 0.3209 -0.1098
vn 0.0410 -0.9992 0.0009
vn 0.6000 -0.1524 0.7854
vn 0.5896 0.0590 0.8056
vn 0.6599 0.7284 -0.1844
vn 0.2443 0.5464 0.8011
vn 0.6731 0.7325 -0.1022
vn 0.3601 0.0334 -0.9323
vn 0.3759 -0.1727 -0.9104
vn 0.1099 0.3387 -0.9345
vn 0.9920 0.0266 0.1232
vn -0.2956 -0.6949 -0.0392
vn -0.0982 -0.0229 0.9944
vn -0.1233 0.0036 0.9924
vn 0.1231 0.0071 -0.9924
vn 0.1394 -0.0122 -0.9895
vn -0.9923 -0.0159 -0.1231
vn 0.2759 0.6882 0.0367
vn 0.0213 -0.9998 0.0009
vn -0.5579 0.0096 0.8298
vn 0.4479 -0.0693 0.8914
vn 0.6273 0.7416 0.2376
vn -0.8175 -0.1661 0.5514
vn 0.6493 0.7552 -0.0900
vn 0.6127 -0.0761 -0.7867
vn -0.3381 0.0749 -0.9381
vn -0.6676 -0.1587 -0.7274
vn -0.9083 -0.0343 -0.4170
vn -0.4173 -0.0002 0.9088
vn -0.4254 0.0183 0.9044
vn -0.3827 -0.3267 -0.1758
vn 0.4169 0.0089 -0.9089
vn 0.4142 0.0107 -0.9086
vn 0.9079 0.0430 0.4169
vn 0.3898 0.3498 0.1791
vn 0.0370 -0.9992 0.0120
vn 0.0420 -0.0978 0.9943
vn 0.0473 0.1186 0.9918
vn -0.0102 0.9918 -0.1275
vn -0.4887 0.4803 0.7284
vn -0.0739 0.9970 0.0250
vn 0.7838 0.1175 -0.6098
vn 0.7814 -0.0946 -0.6168
vn 0.3044 0.4370 -0.8464
vn 0.9919 0.0305 0.1232
vn 0.9486 0.1129 -0.0383
vn -0.1260 0.0558 0.9861
vn -0.1234 0.0077 0.9923
vn 0.1799 0.0076 -0.9837
vn 0.1231 -0.0232 -0.9841
vn -0.9923 -0.0116 -0.1232
vn -0.8969 -0.0809 -0.2609
vn 0.0211 -0.9998 0.0009
vn -0.6793 -0.1769 0.7122
vn -0.7120 0.0867 0.6968
vn -0.9218 -0.3787 -0.0828
vn -0.6914 -0.0059 0.7224
vn -0.4755 -0.1470 -0.8674
vn -0.4701 -0.2206 -0.8546
vn -0.4837 -0.0081 -0.8752
vn -0.9083 -0.0328 -0.4170
vn -0.4173 0.0014 0.9088
vn -0.4286 0.0227 0.9028
vn -0.2172 -0.2422 -0.1669
vn 0.3652 0.0053 -0.9309
vn 0.4163 0.0062 -0.9080
vn 0.9079 0.0445 0.4168
vn 0.2881 0.2745 0.0574
vn 0.1631 -0.0802 0.9834
vn 0.1513 0.0556 0.9869
vn -0.2993 0.9386 -0.1715
vn -0.6751 0.4455 0.5880
vn -0.2992 0.9386 -0.1715
vn 0.8380 0.0592 -0.5425
vn 0.8420 -0.1150 -0.5270
vn 0.0853 0.4149 -0.9059
vn -0.9618 -0.0342 -0.2715
vn -0.2718 0.0037 0.9624
vn -0.3000 0.0116 0.9539
vn -0.0864 -0.5133 -0.0798
vn 0.2190 0.0017 -0.9757
vn 0.2710 0.0019 -0.9621
vn 0.9615 0.0441 0.2714
vn 0.1144 0.5257 -0.0265
vn 0.0380 -0.9992 0.0094
vn 0.3847 -0.0109 0.9230
vn 0.2725 0.4152 0.8680
vn -0.7091 0.6057 -0.3609
vn -0.6557 0.5375 0.5302
vn -0.6893 0.7196 0.0838
vn 0.7253 0.4724 -0.5007
vn 0.8545 0.1977 -0.4804
vn -0.3335 0.5982 -0.7287
vn 0.9088 0.0226 -0.4167
vn 0.8285 -0.0458 -0.5402
vn 0.3260 0.2475 0.7126
vn 0.4162 0.0258 0.9089
vn -0.3702 -0.0187 -0.9288
vn -0.3213 -0.2277 -0.7074
vn -0.9090 -0.0142 0.4166
vn -0.9490 -0.0162 0.2611
vn 0.0258 -0.9996 0.0120
vn -0.1474 -0.1539 0.9770
vn -0.2981 0.7734 0.5594
vn -0.9054 0.0364 0.4230
vn -0.1521 0.0534 0.9869
vn -0.7715 -0.5371 -0.3409
vn -0.8266 -0.2397 -0.5093
vn -0.8460 -0.0352 -0.5319
vn 0.9621 0.0264 -0.2713
vn -0.0470 -0.6256 0.0546
vn 0.3260 0.0034 0.9443
vn 0.2708 0.0210 0.9624
vn -0.1952 -0.0112 -0.9807
vn -0.2888 -0.0051 -0.9556
vn -0.9624 -0.0156 0.2712
vn 0.0635 0.6165 0.0127
vn 0.0244 -0.9997 0.0094
vn -0.2252 -0.0550 0.9728
vn 0.8169 0.0649 0.5732
vn 0.5166 0.8562 0.0036
vn -0.4890 -0.2191 0.8443
vn 0.4933 0.7331 -0.4682
vn 0.2754 -0.0666 -0.9590
vn -0.6553 -0.4017 -0.6397
vn -0.8119 -0.2574 -0.5239
vn -0.9918 -0.0347 0.1229
vn 0.1226 0.0116 0.9924
vn 0.0724 0.0186 0.9972
vn -0.0533 -0.4670 -0.0198
vn -0.1945 -0.0061 -0.9809
vn -0.1101 -0.0145 -0.9930
vn 0.9914 0.0460 -0.1229
vn 0.0445 0.4763 -0.0451
vn 0.0411 -0.9992 0.0009
vn 0.0408 -0.9992 0.0009
vn 0.5661 -0.4773 0.6721
vn 0.6072 -0.2313 0.7601
vn -0.8101 0.4669 0.3547
vn -0.3410 -0.1411 0.9294
vn -0.5075 0.8617 -0.0004
vn 0.6115 -0.0559 -0.7893
vn 0.5514 0.1867 -0.8131
vn -0.5051 0.2420 -0.8285
s 1
f 1/1/1 2/2/2 4/3/3 3/4/4
f 5/5/5 6/6/6 2/2/2 1/1/1
f 7/7/7 8/8/8 6/6/6 5/5/5
f 3/9/4 4/10/3 8/8/8 7/7/7
f 3/4/9 9/11/9 5/5/9 1/1/9
f 5/5/9 9/12/9 3/9/9 7/7/9
f 10/13/10 11/14/11 13/15/12 12/16/13
f 14/17/14 15/18/15 11/14/11 10/13/10
f 16/19/16 17/20/17 15/18/15 14/17/14
f 12/21/13 13/22/12 17/20/17 16/19/16
f 12/16/18 18/23/18 14/17/18 10/13/18
f 14/17/18 18/24/18 12/21/18 16/19/18
f 19/25/19 21/26/20 22/27/21 20/28/22
f 23/29/23 19/25/19 20/28/22 24/30/24
f 25/31/25 23/29/23 24/30/24 26/32/26
f 21/33/20 25/31/25 26/32/26 22/34/21
f 21/26/27 19/25/27 23/29/27 27/35/27
f 23/29/27 25/31/27 21/33/27 27/36/27
f 28/37/28 30/38/29 31/39/30 29/40/31
f 31/39/32 33/41/33 34/42/34 32/43/35
f 35/44/36 36/45/37 38/46/38 37/47/39
f 39/48/40 40/49/41 36/45/37 35/44/36
f 41/50/42 42/51/43 40/49/41 39/48/40
f 37/52/39 38/53/38 42/51/43 41/50/42
f 37/47/44 43/54/44 39/48/44 35/44/44
f 39/48/44 43/55/44 37/52/44 41/50/44
f 44/56/45 45/57/46 47/58/47 46/59/48
f 47/58/49 48/60/50 50/61/51 49/62/52
f 51/63/53 52/64/54 54/65/55 53/66/56
f 55/67/57 56/68/58 52/64/54 51/63/53
f 57/69/59 58/70/60 56/68/58 55/67/57
f 53/71/56 54/72/55 58/70/60 57/69/59
f 53/66/61 59/73/61 55/67/61 51/63/61
f 55/67/61 59/74/61 53/71/61 57/69/61
f 60/75/62 61/76/63 63/77/64 62/78/65
f 63/77/66 64/79/67 66/80/68 65/81/69
f 67/82/70 69/83/71 70/84/72 68/85/73
f 71/86/74 67/82/70 68/85/73 72/87/75
f 73/88/76 71/86/74 72/87/75 74/89/77
f 69/90/71 73/88/76 74/89/77 70/91/72
f 69/83/78 67/82/78 71/86/78 75/92/78
f 71/86/78 73/88/78 69/90/78 75/93/78
f 76/94/79 78/95/80 79/96/81 77/97/82
f 79/96/83 81/98/84 82/99/85 80/100/86
f 83/101/87 84/102/88 86/103/89 85/104/90
f 87/105/91 88/106/92 84/102/88 83/101/87
f 89/107/93 90/108/94 88/106/92 87/105/91
f 85/109/90 86/110/89 90/108/94 89/107/93
f 85/104/95 91/111/95 87/105/95 83/101/95
f 87/105/95 91/112/95 85/109/95 89/107/95
f 92/113/96 93/114/97 95/115/98 94/116/99
f 95/115/100 96/117/101 98/118/102 97/119/103
f 99/120/104 101/121/105 102/122/106 100/123/107
f 103/124/108 99/120/104 100/123/107 104/125/109
f 105/126/110 103/124/108 104/125/109 106/127/111
f 101/128/105 105/126/110 106/127/111 102/129/106
f 101/121/112 99/120/112 103/124/112 107/130/112
f 103/124/112 105/126/112 101/128/112 107/131/112
f 108/132/113 110/133/114 111/134/115 109/135/116
f 111/134/117 113/136/118 114/137/119 112/138/120
f 115/139/121 116/140/122 118/141/123 117/142/124
f 119/143/125 120/144/126 116/140/122 115/139/121
f 121/145/127 122/146/128 120/144/126 119/143/125
f 117/147/124 118/148/123 122/146/128 121/145/127
f 117/142/129 123/149/129 119/143/129 115/139/129
f 119/143/129 123/150/129 117/147/129 121/145/129
f 124/151/130 125/152/131 127/153/132 126/154/133
f 127/153/132 128/155/134 130/156/135 129/157/136
f 131/158/137 133/159/138 134/160/139 132/161/140
f 135/162/141 131/158/137 132/161/140 136/163/142
f 137/164/143 135/162/141 136/163/142 138/165/144
f 133/166/138 137/164/143 138/165/144 134/167/139
f 133/159/112 131/158/112 135/162/112 139/168/112
f 135/162/112 137/164/112 133/166/112 139/169/112
f 140/170/145 142/171/146 143/172/147 141/173/148
f 143/172/149 145/174/150 146/175/151 144/176/152
f 147/177/153 149/178/154 150/179/155 148/180/156
f 151/181/157 147/177/153 148/180/156 152/182/158
f 153/183/159 151/181/157 152/182/158 154/184/160
f 149/185/154 153/183/159 154/184/160 150/186/155
f 149/178/161 147/177/161 151/181/161 155/187/161
f 151/181/161 153/183/161 149/185/161 155/188/161
f 156/189/162 158/190/163 159/191/164 157/192/165
f 159/191/166 161/193/167 162/194/168 160/195/169
f 163/196/170 164/197/171 166/198/172 165/199/173
f 167/200/174 168/201/175 164/197/171 163/196/170
f 169/202/176 170/203/177 168/201/175 167/200/174
f 165/204/173 166/205/172 170/203/177 169/202/176
f 165/199/178 171/206/178 167/200/178 163/196/178
f 167/200/178 171/207/178 165/204/178 169/202/178
f 172/208/179 173/209/180 175/210/181 174/211/182
f 175/210/181 176/212/183 178/213/184 177/214/185
f 179/215/186 180/216/187 182/217/188 181/218/189
f 183/219/190 184/220/191 180/216/187 179/215/186
f 185/221/192 186/222/193 184/220/191 183/219/190
f 181/223/189 182/224/188 186/222/193 185/221/192
f 181/218/194 187/225/194 183/219/194 179/215/194
f 183/219/194 187/226/194 181/223/194 185/221/194
f 188/227/195 189/228/196 191/229/197 190/230/198
f 191/229/199 192/231/200 194/232/201 193/233/202
f 195/234/203 197/235/204 198/236/205 196/237/206
f 199/238/207 195/234/203 196/237/206 200/239/208
f 201/240/209 199/238/207 200/239/208 202/241/210
f 197/242/204 201/240/209 202/241/210 198/243/205
f 197/235/211 195/234/211 199/238/212 203/244/211
f 199/238/212 201/240/211 197/242/211 203/245/211
f 204/246/213 206/247/214 207/248/215 205/249/216
f 207/248/217 209/250/218 210/251/219 208/252/220
